<svg xmlns="http://www.w3.org/2000/svg" viewBox="0 0 64 64" role="img" aria-label="JDL">
  <defs>
    <linearGradient id="bg" x1="0" y1="0" x2="1" y2="1">
      <stop offset="0%" stop-color="#ff5a1f" />
      <stop offset="100%" stop-color="#e1251b" />
    </linearGradient>
  </defs>
  <rect x="4" y="4" width="56" height="56" rx="16" fill="url(#bg)" />
  <path d="M22 18h8v19c0 6-3.5 10-10.5 10H16v-7h2.8c2.2 0 3.2-1 3.2-3.4V18z" fill="#fff" />
  <path d="M36 18h8.8C53 18 58 23 58 31.8 58 40.8 52.8 46 44.2 46H36V18zm8 7v14h1.1c3.4 0 5.6-2.3 5.6-7.1 0-4.5-2.2-6.9-5.6-6.9H44z" fill="#fff" />
</svg>
